<svg width="24" height="23" viewBox="0 0 24 23" fill="none" xmlns="http://www.w3.org/2000/svg">
<path d="M23.064 9.30767C22.8905 9.12272 22.5982 9.09567 22.391 9.2454L20.939 10.2926C20.927 10.3012 20.914 10.3108 20.902 10.3213L20.863 10.3472L19.207 11.5419C19.1479 11.5844 19.1149 11.6523 19.119 11.723C19.1255 11.8099 19.1224 11.8972 19.11 11.9836C18.9914 12.7685 18.2315 13.3131 17.4121 13.2002C16.5926 13.0874 16.0235 12.3598 16.1405 11.5746C16.2575 10.7895 17.0163 10.2435 17.836 10.3548C17.9264 10.3676 18.0152 10.3891 18.101 10.419C18.1686 10.4419 18.2437 10.4307 18.301 10.3893L19.001 9.88731C19.2219 9.72857 19.2667 9.42831 19.101 9.21666L18.241 8.11966C18.1483 8.00117 18.0036 7.93043 17.849 7.92805C17.7968 7.92701 17.7447 7.92317 17.693 7.91655C16.8737 7.80295 16.3053 7.07488 16.4231 6.2898C16.5409 5.50472 17.3003 4.95949 18.1198 5.07157C18.9394 5.18366 19.5092 5.91067 19.393 6.69597C19.3849 6.74532 19.3743 6.79424 19.361 6.84255C19.3202 6.98524 19.3504 7.13801 19.443 7.25644L20.3 8.35439C20.4657 8.56604 20.7791 8.60894 21 8.4502L22.257 7.54386C22.3578 7.47091 22.426 7.36412 22.448 7.24494C22.482 7.0673 22.4994 6.88711 22.5 6.70651C22.5 5.81717 22.1313 4.96426 21.4749 4.3354C20.8185 3.70654 19.9283 3.35325 19 3.35325C18.9977 3.35353 18.9954 3.35285 18.9937 3.35138C18.992 3.34991 18.991 3.3478 18.991 3.34559C18.853 1.46289 17.2199 0.00240183 15.25 0C14.4109 0.000330123 13.5967 0.272849 12.94 0.773164C12.8198 0.864159 12.7498 1.00292 12.75 1.14969V9.58072C12.75 9.97757 12.4142 10.2993 12 10.2993C11.5858 10.2993 11.25 9.97757 11.25 9.58072V1.14969C11.2502 1.00292 11.1802 0.864159 11.06 0.773164C10.4033 0.272849 9.58905 0.000330123 8.75 0C6.78007 0.00240183 5.14697 1.46289 5.009 3.34559C5.00902 3.3478 5.00804 3.34991 5.00632 3.35138C5.00459 3.35285 5.00229 3.35353 5 3.35325C3.067 3.35325 1.5 4.85456 1.5 6.70651C1.50099 6.88682 1.51873 7.06669 1.553 7.24399C1.57497 7.36316 1.64321 7.46996 1.744 7.5429L3 8.4502C3.22091 8.60894 3.53431 8.56604 3.7 8.35439L4.56 7.26027C4.6529 7.14161 4.68318 6.98841 4.642 6.84543C4.62864 6.79714 4.61796 6.74821 4.61 6.69884C4.49381 5.91354 5.06363 5.18653 5.88318 5.07445C6.70273 4.96236 7.46211 5.50759 7.57989 6.29267C7.69768 7.07775 7.12932 7.80582 6.31 7.91943C6.25826 7.92604 6.20618 7.92988 6.154 7.93092C5.99944 7.93331 5.85473 8.00405 5.762 8.12254L4.9 9.21953C4.73431 9.43118 4.77909 9.73144 5 9.89018L5.7 10.3922C5.75729 10.4334 5.83214 10.4449 5.9 10.4229C5.98567 10.3922 6.0745 10.3704 6.165 10.3577C6.98466 10.2464 7.74349 10.7923 7.86048 11.5775C7.97747 12.3627 7.40838 13.0902 6.58894 13.2031C5.76951 13.3159 5.00958 12.7714 4.891 11.9864C4.87874 11.9004 4.87539 11.8135 4.881 11.7268C4.88599 11.6557 4.85282 11.5871 4.793 11.5448L3.108 10.3271L3.098 10.3213C3.08683 10.3118 3.07515 10.3028 3.063 10.2945L1.609 9.2454C1.4018 9.09567 1.10946 9.12272 0.936 9.30767C0.355497 9.90345 0.0225702 10.6821 0 11.4969C0.0482366 12.6286 0.662889 13.6687 1.651 14.2906C1.85252 14.4228 1.92482 14.6752 1.822 14.8875C1.4148 15.7295 1.39291 16.6962 1.7616 17.5543C2.13029 18.4125 2.8561 19.0843 3.764 19.4077C3.94801 19.4746 4.15586 19.4318 4.295 19.2985L5.97 17.6946C6.02234 17.6445 6.04456 17.5723 6.029 17.503C6.01021 17.4183 6.00049 17.3319 6 17.2453C6 16.4516 6.67157 15.8082 7.5 15.8082C8.32843 15.8082 9 16.4516 9 17.2453C9 18.039 8.32843 18.6824 7.5 18.6824C7.40886 18.6821 7.31801 18.6725 7.229 18.6537C7.15648 18.6392 7.08123 18.6608 7.029 18.7112L5.411 20.2623C5.2645 20.3998 5.2205 20.609 5.3 20.7902C5.74452 21.8264 6.67161 22.6021 7.80316 22.8847C8.93472 23.1673 10.1391 22.9238 11.055 22.2273C11.1756 22.1365 11.246 21.9977 11.246 21.8508V19.6405C11.246 19.2436 11.5818 18.9219 11.996 18.9219C12.4102 18.9219 12.746 19.2436 12.746 19.6405V21.844C12.746 21.991 12.8164 22.1298 12.937 22.2206C13.8522 22.9206 15.058 23.167 16.1917 22.8856C17.3254 22.6042 18.2547 21.8279 18.7 20.7902C18.7787 20.6109 18.7364 20.4038 18.593 20.2661L16.97 18.7112C16.9175 18.6613 16.8425 18.6397 16.77 18.6537C16.681 18.6725 16.5901 18.6821 16.499 18.6824C15.6707 18.6819 14.9996 18.0382 15 17.2447C15.0004 16.4511 15.672 15.808 16.5003 15.8082C17.3286 15.8084 18 16.4517 18 17.2453C17.9996 17.3323 17.9899 17.4189 17.971 17.504C17.9554 17.5733 17.9777 17.6455 18.03 17.6956L19.7 19.2994C19.8391 19.4328 20.047 19.4755 20.231 19.4086C21.1389 19.0852 21.8647 18.4134 22.2334 17.5553C22.6021 16.6971 22.5802 15.7305 22.173 14.8884C22.0702 14.6762 22.1425 14.4238 22.344 14.2916C23.3343 13.6705 23.951 12.6298 24 11.4969C23.9774 10.6821 23.6445 9.90345 23.064 9.30767Z" fill="#601CBA"/>
</svg>
