<svg width="24" height="19" viewBox="0 0 24 19" fill="none" xmlns="http://www.w3.org/2000/svg">
<path d="M4.938 5.941C4.99481 5.89391 5.02748 5.82379 5.027 5.75C5.02722 5.67598 4.99463 5.60567 4.938 5.558C4.47754 5.17417 4.10943 4.69156 3.861 4.146C3.82001 4.057 3.73098 3.99999 3.633 4H2C0.89543 4 0 4.89543 0 6C0 7.10457 0.89543 8 2 8H3.453C3.56291 7.99995 3.6599 7.92812 3.692 7.823C3.91852 7.08928 4.351 6.43606 4.938 5.941Z" fill="#81E8A1"/>
<path d="M4.941 12.441C4.99756 12.3937 5.03025 12.3237 5.03025 12.25C5.03025 12.1763 4.99756 12.1063 4.941 12.059C4.09422 11.3558 3.57594 10.3337 3.509 9.235C3.50103 9.10244 3.3908 8.99923 3.258 9H2C0.89543 9 0 9.89543 0 11C0 12.1046 0.89543 13 2 13H4.285C4.35867 12.9999 4.42856 12.9674 4.476 12.911C4.61871 12.7426 4.77417 12.5855 4.941 12.441Z" fill="#81E8A1"/>
<path d="M3.5 15.5C3.50047 15.1011 3.5615 14.7045 3.681 14.324C3.70489 14.2483 3.69113 14.1658 3.644 14.102C3.59668 14.0391 3.52265 14.0021 3.444 14.002H2C0.89543 14.002 0 14.8974 0 16.002C0 17.1065 0.89543 18.002 2 18.002H3.915C4.00623 18.0015 4.09003 17.9516 4.13387 17.8716C4.17772 17.7916 4.17471 17.6941 4.126 17.617C3.71832 16.9861 3.50099 16.2511 3.5 15.5Z" fill="#81E8A1"/>
<path d="M18.562 5.558C18.5054 5.60567 18.4728 5.67598 18.473 5.75C18.4725 5.82379 18.5052 5.89391 18.562 5.941C19.149 6.43606 19.5815 7.08928 19.808 7.823C19.8401 7.92812 19.9371 7.99995 20.047 8H22C23.1046 8 24 7.10457 24 6C24 4.89543 23.1046 4 22 4H19.867C19.769 3.99999 19.68 4.057 19.639 4.146C19.3906 4.69156 19.0225 5.17417 18.562 5.558Z" fill="#81E8A1"/>
<path d="M18.561 12.059C18.5051 12.1067 18.4728 12.1765 18.4728 12.25C18.4728 12.3235 18.5051 12.3933 18.561 12.441C18.7278 12.5855 18.8833 12.7426 19.026 12.911C19.0734 12.9674 19.1433 12.9999 19.217 13H22C23.1046 13 24 12.1046 24 11C24 9.89543 23.1046 9 22 9H20.242C20.11 9.00029 20.0009 9.1032 19.993 9.235C19.9261 10.3337 19.4078 11.3558 18.561 12.059Z" fill="#81E8A1"/>
<path d="M20 15.5C19.9986 16.2505 19.7813 16.9847 19.374 17.615C19.3253 17.6921 19.3223 17.7896 19.3661 17.8696C19.41 17.9496 19.4938 17.9996 19.585 18H22C23.1046 18 24 17.1046 24 16C24 14.8954 23.1046 14 22 14H20.058C19.9793 14.0002 19.9053 14.0372 19.858 14.1C19.8109 14.1638 19.7971 14.2463 19.821 14.322C19.94 14.7033 20.0004 15.1005 20 15.5Z" fill="#81E8A1"/>
<path fill-rule="evenodd" clip-rule="evenodd" d="M7.5 5H16C17.3807 5 18.5 3.88071 18.5 2.5C18.5 1.11929 17.3807 0 16 0H7.5C6.11929 0 5 1.11929 5 2.5C5 3.88071 6.11929 5 7.5 5ZM11 1.5C11.5523 1.5 12 1.94772 12 2.5C12 3.05228 11.5523 3.5 11 3.5C10.4477 3.5 10 3.05228 10 2.5C10 1.94772 10.4477 1.5 11 1.5ZM8.75 2.5C8.75 1.94772 8.30228 1.5 7.75 1.5C7.19772 1.5 6.75 1.94772 6.75 2.5C6.75 3.05228 7.19772 3.5 7.75 3.5C8.30228 3.5 8.75 3.05228 8.75 2.5Z" fill="#81E8A1"/>
<path fill-rule="evenodd" clip-rule="evenodd" d="M7.5 11.5H16C17.3807 11.5 18.5 10.3807 18.5 9C18.5 7.61929 17.3807 6.5 16 6.5H7.5C6.11929 6.5 5 7.61929 5 9C5 10.3807 6.11929 11.5 7.5 11.5ZM11 8C11.5523 8 12 8.44772 12 9C12 9.55228 11.5523 10 11 10C10.4477 10 10 9.55228 10 9C10 8.44772 10.4477 8 11 8ZM8.75 9C8.75 8.44772 8.30228 8 7.75 8C7.19772 8 6.75 8.44772 6.75 9C6.75 9.55228 7.19772 10 7.75 10C8.30228 10 8.75 9.55228 8.75 9Z" fill="#81E8A1"/>
<path fill-rule="evenodd" clip-rule="evenodd" d="M16 18C17.3807 18 18.5 16.8807 18.5 15.5C18.5 14.1193 17.3807 13 16 13H7.5C6.11929 13 5 14.1193 5 15.5C5 16.8807 6.11929 18 7.5 18H16ZM11 14.5C11.5523 14.5 12 14.9477 12 15.5C12 16.0523 11.5523 16.5 11 16.5C10.4477 16.5 10 16.0523 10 15.5C10 14.9477 10.4477 14.5 11 14.5ZM8.75 15.5C8.75 14.9477 8.30228 14.5 7.75 14.5C7.19772 14.5 6.75 14.9477 6.75 15.5C6.75 16.0523 7.19772 16.5 7.75 16.5C8.30228 16.5 8.75 16.0523 8.75 15.5Z" fill="#81E8A1"/>
</svg>
