<svg width="267" height="180" viewBox="0 0 267 180" fill="none" xmlns="http://www.w3.org/2000/svg">
<path fill-rule="evenodd" clip-rule="evenodd" d="M68.8368 180C49.3609 180 32.7158 165.973 29.4154 146.779L27.3773 134.926L13.3398 124.616C4.95338 118.456 0 108.672 0 98.2668C0 87.5474 5.25492 77.5091 14.0638 71.401L30.6429 59.9051C34.3693 43.6123 49.394 32.4511 66.0688 33.5887L77.2258 34.3499L78.3377 30.0298C82.8869 12.3544 98.8238 0 117.075 0L154.182 0C163.522 0 172.568 3.26845 179.751 9.23867L197.894 24.3187H225.982C251.996 24.3187 271.089 48.759 264.793 73.9998L260.588 90.8561L262.422 101.191C265.866 120.607 254.648 139.636 235.992 146.023L231.872 147.433L223.956 160.605C216.724 172.639 203.712 180 189.672 180H68.8368Z" fill="#7A2FDD"/>
</svg>
