<svg width="22" height="19" viewBox="0 0 22 19" fill="none" xmlns="http://www.w3.org/2000/svg">
<path fill-rule="evenodd" clip-rule="evenodd" d="M1.5 0.25H20.5C21.3284 0.25 22 0.921573 22 1.75V4.25C22 5.07843 21.3284 5.75 20.5 5.75H1.5C0.671573 5.75 0 5.07843 0 4.25V1.75C0 0.921573 0.671573 0.25 1.5 0.25ZM3.5 1.75C2.80964 1.75 2.25 2.30964 2.25 3C2.25055 3.69013 2.80987 4.24945 3.5 4.25C4.19036 4.25 4.75 3.69036 4.75 3C4.75 2.30964 4.19036 1.75 3.5 1.75ZM7.5 4.25C6.80964 4.25 6.25 3.69036 6.25 3C6.25 2.30964 6.80964 1.75 7.5 1.75C8.19036 1.75 8.75 2.30964 8.75 3C8.7489 3.6899 8.1899 4.2489 7.5 4.25Z" fill="#81E8A1"/>
<path fill-rule="evenodd" clip-rule="evenodd" d="M20.5 7.25H1.5C0.671573 7.25 0 7.92157 0 8.75V11.25C0 12.0784 0.671573 12.75 1.5 12.75H9.75C9.88807 12.75 10 12.8619 10 13V16.5C10 16.6381 9.88807 16.75 9.75 16.75H5.5C4.94772 16.75 4.5 17.1977 4.5 17.75C4.5 18.3023 4.94772 18.75 5.5 18.75H16.5C17.0523 18.75 17.5 18.3023 17.5 17.75C17.5 17.1977 17.0523 16.75 16.5 16.75H12.25C12.1119 16.75 12 16.6381 12 16.5V13C12 12.8619 12.1119 12.75 12.25 12.75H20.5C21.3284 12.75 22 12.0784 22 11.25V8.75C22 7.92157 21.3284 7.25 20.5 7.25ZM2.25 10C2.25 9.30964 2.80964 8.75 3.5 8.75C4.19036 8.75 4.75 9.30964 4.75 10C4.75 10.6904 4.19036 11.25 3.5 11.25C2.80987 11.2494 2.25055 10.6901 2.25 10ZM6.25 10C6.25 10.6904 6.80964 11.25 7.5 11.25C8.1899 11.2489 8.7489 10.6899 8.75 10C8.75 9.30964 8.19036 8.75 7.5 8.75C6.80964 8.75 6.25 9.30964 6.25 10Z" fill="#81E8A1"/>
<path d="M21 18.75C21.5523 18.75 22 18.3023 22 17.75C22 17.1977 21.5523 16.75 21 16.75H20C19.4477 16.75 19 17.1977 19 17.75C19 18.3023 19.4477 18.75 20 18.75H21Z" fill="#81E8A1"/>
<path d="M1 18.75H2C2.55228 18.75 3 18.3023 3 17.75C3 17.1977 2.55228 16.75 2 16.75H1C0.447715 16.75 0 17.1977 0 17.75C0 18.3023 0.447715 18.75 1 18.75Z" fill="#81E8A1"/>
</svg>
