<svg width="31" height="29" viewBox="0 0 31 29" fill="none" xmlns="http://www.w3.org/2000/svg">
<g filter="url(#filter0_d)">
<path d="M22.2502 13.4711C23.6794 13.4711 24.9093 12.8603 25.3805 12.144C25.9121 11.3361 26.1441 10.3815 26.1523 9.41048C26.2628 6.43483 24.0819 3.9036 21.2212 3.68731C19.7591 1.0533 16.8882 -0.377158 13.9942 0.0864019C11.1001 0.549962 8.778 2.81224 8.14857 5.78127C8.12792 5.88627 8.04286 5.96443 7.93996 5.97294C5.72282 6.13532 4.00343 8.04882 4.00119 10.3564C3.98803 10.9352 4.08437 11.5082 4.28195 12.044C4.37737 12.3027 5.10348 13.4711 6.81393 13.4711C7.60095 13.4711 20.8209 13.4711 22.2502 13.4711Z" fill="#81E8A1"/>
</g>
<g filter="url(#filter1_d)">
<path fill-rule="evenodd" clip-rule="evenodd" d="M5.38462 15H24.7692C25.5339 15 26.1538 15.6436 26.1538 16.4375V19.3125C26.1538 20.1064 25.5339 20.75 24.7692 20.75H5.38462C4.61991 20.75 4 20.1064 4 19.3125V16.4375C4 15.6436 4.61991 15 5.38462 15ZM21.0769 17.875C21.0769 18.6689 21.6968 19.3125 22.4615 19.3125C23.2262 19.3125 23.8462 18.6689 23.8462 17.875C23.8462 17.0811 23.2262 16.4375 22.4615 16.4375C21.6968 16.4375 21.0769 17.0811 21.0769 17.875Z" fill="#81E8A1"/>
</g>
<defs>
<filter id="filter0_d" x="0" y="0" width="30.1563" height="21.4711" filterUnits="userSpaceOnUse" color-interpolation-filters="sRGB">
<feFlood flood-opacity="0" result="BackgroundImageFix"/>
<feColorMatrix in="SourceAlpha" type="matrix" values="0 0 0 0 0 0 0 0 0 0 0 0 0 0 0 0 0 0 127 0"/>
<feOffset dy="4"/>
<feGaussianBlur stdDeviation="2"/>
<feColorMatrix type="matrix" values="0 0 0 0 0 0 0 0 0 0 0 0 0 0 0 0 0 0 0.25 0"/>
<feBlend mode="normal" in2="BackgroundImageFix" result="effect1_dropShadow"/>
<feBlend mode="normal" in="SourceGraphic" in2="effect1_dropShadow" result="shape"/>
</filter>
<filter id="filter1_d" x="0" y="15" width="30.1538" height="13.75" filterUnits="userSpaceOnUse" color-interpolation-filters="sRGB">
<feFlood flood-opacity="0" result="BackgroundImageFix"/>
<feColorMatrix in="SourceAlpha" type="matrix" values="0 0 0 0 0 0 0 0 0 0 0 0 0 0 0 0 0 0 127 0"/>
<feOffset dy="4"/>
<feGaussianBlur stdDeviation="2"/>
<feColorMatrix type="matrix" values="0 0 0 0 0 0 0 0 0 0 0 0 0 0 0 0 0 0 0.25 0"/>
<feBlend mode="normal" in2="BackgroundImageFix" result="effect1_dropShadow"/>
<feBlend mode="normal" in="SourceGraphic" in2="effect1_dropShadow" result="shape"/>
</filter>
</defs>
</svg>
