<svg width="248" height="140" viewBox="0 0 248 140" fill="none" xmlns="http://www.w3.org/2000/svg">
<path d="M22.1306 86.2471V108.952L23.8793 109.803L25.8826 108.9L25.8826 86.2471H22.1306Z" fill="#D2CDC4"/>
<path d="M63.4689 87.4866L36.0628 106L44.437 110.605L66.9507 88.9963L63.4689 87.4866Z" fill="url(#paint0_linear)"/>
<path d="M63.1306 66.2471V88.9523L64.8793 89.8026L66.8826 88.9002V66.2471H63.1306Z" fill="#D2CDC4"/>
<path d="M3.13058 74.2471V96.9523L4.87928 97.8026L6.88257 96.9002L6.88257 74.2471H3.13058Z" fill="#D2CDC4"/>
<path d="M46.0459 56.9998L0.274689 73.6739V77.5361L24.2287 90.5562L69.9999 70.0199V66.2748L46.0459 56.9998Z" fill="#E8E2D9"/>
<path d="M46.0459 52.9998L0.274689 73.5361L24.2287 86.5562L69.9999 66.0199L46.0459 52.9998Z" fill="#F4F0EA"/>
<path d="M34.9417 53.9339C34.7703 53.3599 34.1362 53.0644 33.5864 53.3022L18.9459 59.6358C18.4809 59.837 18.2398 60.3542 18.3848 60.8397L21.5109 71.3097L37.9999 64.1764L34.9417 53.9339Z" fill="#A09797"/>
<path d="M45.2101 68.4654C45.9444 68.8582 45.905 69.9238 45.1438 70.2613L31.9026 76.1329C31.3391 76.3827 30.692 76.3588 30.1485 76.0681L21.9999 71.7093L38.0059 64.6118L45.2101 68.4654Z" fill="#877F7F"/>
<path d="M40.9999 70.5838L35.2913 73.1358L32.0441 71.5517L37.7527 68.9998L40.9999 70.5838Z" fill="#AEA9A9"/>
<path d="M58.7492 98.2384L65.1628 93.3374L61.0846 85.5564L47 94.264L57.8898 110.635L62.8645 108.803C62.8645 108.803 59.3 102.131 58 98.9999C56.7 95.8687 58.7492 98.2384 58.7492 98.2384Z" fill="#A0CBAE"/>
<path d="M63.7063 114L34 126.62L49 133L73.287 120.105C73.287 120.105 74.5843 117.36 72.125 116.654C69.6658 115.948 63.7063 114 63.7063 114Z" fill="url(#paint1_linear)"/>
<path d="M67.5 120.737C71.6421 120.737 75 119.146 75 117.184C75 116.35 75 115.537 75 115.537H60C60 115.537 60 115.222 60 117.184C60 119.146 63.3579 120.737 67.5 120.737Z" fill="#C3B9B9"/>
<path d="M67.5 118.737C71.6421 118.737 75 117.146 75 115.184C75 113.222 71.6421 111.632 67.5 111.632C63.3579 111.632 60 113.222 60 115.184C60 117.146 63.3579 118.737 67.5 118.737Z" fill="#D7C9C9"/>
<rect x="65.5264" y="98" width="3.94737" height="17.7632" rx="1.97368" fill="#F4EEEE"/>
<path d="M59.1212 109.653L56.3688 110.881L53.3837 112.875L54.2079 114.103L61.5401 114.103L65.1803 111.856L63.7983 108.079L59.1212 109.653Z" fill="#CFDCE8"/>
<path d="M81.7252 95.4429V98.438L63.4991 107.556L51 102.118V98.9999L81.7252 95.4429Z" fill="#C7A19D"/>
<path d="M69.2261 90L81.7252 95.4381L63.4991 104.556L51 99.1183L69.2261 90Z" fill="#E2B2AD"/>
<path d="M33.9594 108.803L5.88265 118.737L20.9999 122.561L44.8568 111.75L33.9594 108.803Z" fill="url(#paint2_linear)"/>
<path d="M39.0244 107.704L35.3234 107.906L31.9043 109L32.3582 110.407L39.0244 112.581L44.7023 111.918L44.415 107.906L39.0244 107.704Z" fill="#CFDCE8"/>
<path d="M46.7491 97.2384L59.2356 99L73.9999 93.264L69.9999 85L56.0771 85.3161L37.8568 90V108.704H44.2062L46.7491 97.2384Z" fill="#B6DBC1"/>
<path d="M51 89.3336L60.2748 92.9943L70.1553 86.7483L63.4556 65.9999L61.0711 63.9211L51.4309 67.0178L50 78.9905L51 89.3336Z" fill="#9F9687"/>
<path d="M51.8443 66.8347L41.5898 76.0329H35.129L31.9043 78.5444L43 81.9999L54.8645 76.0329" fill="#9F9687"/>
<path d="M49.1575 56C49.1575 56 50.6062 62.5714 51.9479 64.208C52.5246 64.9114 53.7097 64.208 53.7097 64.208L54.8644 66.8775C54.8644 66.8775 56.7919 67.424 57.9285 67.2529C59.0651 67.0817 60.6924 66 60.6924 66L59.8901 61L54.9545 53.5564L49.1575 56Z" fill="#DCCAB1"/>
<path d="M50.9999 57.4855L54.5944 62.9298L60.2748 61.7368L61.071 54.1153L57.4143 49.6064L49.3555 50.4915L48.016 55.9999L50.9999 57.4855Z" fill="#AD887E"/>
<path d="M35 76.2474L30.8483 73.9592L29 76L32 78.4474L35 76.2474Z" fill="#DCCAB1"/>
<path d="M79.6061 73.7756C80.299 73.4289 81.1059 73.9678 81.0511 74.7406L79.8461 91.7324C79.7711 92.7896 79.1438 93.7288 78.196 94.203L67.0681 99.7711C66.3752 100.118 65.5683 99.5789 65.6231 98.8061L66.8282 81.8144C66.9031 80.7572 67.5304 79.818 68.4782 79.3437L79.6061 73.7756Z" fill="#C7A19D"/>
<path d="M120.155 79L93.7055 92.7376L113.176 102.297L133.525 82L120.155 79Z" fill="url(#paint3_linear)"/>
<path d="M128.192 76.6105L133.815 81.8044L132.311 83.3029L128.63 83.4315L121.213 76.6105L128.192 76.6105Z" fill="#939191"/>
<path d="M123.746 78.7046L127.605 84.1818L126.101 85.6803L122.42 85.8088L117.564 80.711L117.938 77.3895L123.746 78.7046Z" fill="#939191"/>
<path d="M122.876 78.2833L128.128 77.4837L128.09 43.5588L114.492 41.339L117.451 60.6071L122.876 78.2833Z" fill="#8988AA"/>
<path d="M123.745 79.2973L120.779 80.9154L117.406 79.5187L117.46 65.7177L113.978 47.1399L124.973 48.5037L124.973 66.7585L123.745 79.2973Z" fill="#9998B7"/>
<path d="M127.783 20.0582L134.004 33.6522L141.657 36.5875L138.428 39.655L126.842 37.1048L127.783 20.0582Z" fill="#E9D4C0"/>
<path d="M128.584 44.9944L124.217 50.1092L116.867 50.1092L113.655 47.6796L112.768 22.5888L122.808 16.8264L127.769 19.52L131.876 28.343L128.656 30.2037L128.584 44.9944Z" fill="#E0A6A6"/>
<path d="M149.551 38.9985L149.056 37.6858L137.165 40.166L137.787 41.1958L149.551 38.9985Z" fill="#8DCAD6"/>
<path d="M152.746 33.2778L149.056 37.6858L137.165 40.1659L140.982 35.475L152.746 33.2778Z" fill="#BBECF6"/>
<path d="M149.537 39.0226L149.056 37.6857L152.685 33.3315L153.294 34.3855L149.537 39.0226Z" fill="#91B3BA"/>
<path d="M128.584 8.60921C128.584 8.60921 128.939 15.5919 126.998 17.9118C125.057 20.2318 122.35 19.9719 119.768 16.5564C117.187 13.1408 119.768 7.12912 119.768 7.12912L128.584 8.60921Z" fill="#E9D4C0"/>
<path d="M130.508 9.56685L125.649 9.33168L122.217 10.613L122.279 12.3972L119.463 13.4495L118.723 14.7842L116.867 11.6041L116.998 4.78862L123.859 1.71895L130.354 5.15188L130.508 9.56685Z" fill="#E3BB9C"/>
<path d="M121.773 52.1206L117.689 57.6172" stroke="#7982A0"/>
<path d="M123.598 18.1628C123.79 18.6447 123.581 19.1931 123.118 19.4258L120.528 20.7256C120.002 20.9897 119.363 20.7445 119.148 20.1963L116.128 12.4765C115.926 11.9604 116.182 11.3785 116.699 11.1791L119.352 10.1561C119.863 9.95876 120.438 10.2102 120.641 10.7198L123.598 18.1628Z" fill="#6F6D6D"/>
<path d="M111.998 32.1716L116.206 41.3015L122.345 39.8458L123.187 23.8501L123.677 20.8388L121.826 15.5328L118.723 15.0006L120.183 22.9774L118.723 34.6251L117.633 31.8274" fill="#E9D4C0"/>
<path d="M112.689 22.6468L109.998 33.7301L118.173 32.5404L116.867 25.6169L112.689 22.6468Z" fill="#E0A6A6"/>
<path d="M217.131 91.2473V113.953L218.879 114.803L220.883 113.9V91.2473H217.131Z" fill="#D2CDC4"/>
<path d="M241.131 79.2473V101.953L242.879 102.803L244.883 101.9V79.2473H241.131Z" fill="#D2CDC4"/>
<path d="M180.131 74.2473V96.9525L181.879 97.8029L183.883 96.9005V74.2473H180.131Z" fill="#D8D8D8" stroke="#979797"/>
<path d="M181.857 74.2842V97.7039" stroke="#979797"/>
<path d="M224.046 70L177.361 71V74.8622L219.165 95.7847L248 83.0202V79.2751L224.046 70Z" fill="#E8E2D9"/>
<path d="M206.046 58L177.275 70.5363L219.229 91.5565L248 79.0202L206.046 58Z" fill="#F4F0EA"/>
<path d="M206.746 71.204C206.484 71.0746 206.178 71.0664 205.909 71.1818L196.873 75.0607C196.638 75.1617 196.629 75.4921 196.858 75.6054L210.528 82.3524C210.791 82.4819 211.097 82.49 211.365 82.3746L220.402 78.4958C220.637 78.3948 220.646 78.0644 220.416 77.9511L206.746 71.204Z" fill="#D3D0D0"/>
<path d="M219.992 63L218.159 70.6434L224 74.0753V65.2762L219.992 63Z" fill="#827D7D"/>
<path d="M214.974 42.5345C214.361 42.2678 213.663 42.6667 213.582 43.3306L211.354 61.6153C211.302 62.036 211.522 62.4434 211.901 62.6319L232.015 72.6213C232.632 72.9274 233.366 72.5338 233.452 71.8509L235.812 53.1644C235.924 52.2831 235.44 51.4339 234.625 51.0797L214.974 42.5345Z" fill="#625B5B"/>
<path d="M194.142 70L187.858 72.4523L190.927 73.4801L197 71.2239L194.142 70Z" fill="white"/>
<path d="M187.561 108.862L189.813 109.665L189.857 112.069L184.736 113.344L179.615 112.763L180.015 108.64L187.561 108.862Z" fill="#C0BCBC"/>
<path d="M183.211 94L189.208 96.4581L185.361 110.362L180.131 109.581L183.211 94Z" fill="#746E6E"/>
<path d="M167.971 116.669L138.265 129.289L157.39 139.522L180 121.242C180 121.242 178.849 120.029 176.39 119.323C173.931 118.617 167.971 116.669 167.971 116.669Z" fill="url(#paint4_linear)"/>
<path d="M172.5 123.737C168.358 123.737 165 122.146 165 120.184C165 119.35 165 118.537 165 118.537H180C180 118.537 180 118.222 180 120.184C180 122.146 176.642 123.737 172.5 123.737Z" fill="#AAA4A4"/>
<path d="M172.5 121.737C168.358 121.737 165 120.146 165 118.184C165 116.222 168.358 114.632 172.5 114.632C176.642 114.632 180 116.222 180 118.184C180 120.146 176.642 121.737 172.5 121.737Z" fill="#C4BFBF"/>
<rect width="3.94737" height="17.7632" rx="1.97368" transform="matrix(-1 0 0 1 174.474 101)" fill="#F6F2F2"/>
<path d="M158.275 98.573V100.438L176.501 109.556L188.907 103.561V102.146L158.275 98.573Z" fill="#9E92B9"/>
<path d="M170.774 93L158.275 98.4381L176.501 107.556L189 102.118L170.774 93Z" fill="#B3A9C9"/>
<path d="M196.518 115L169.112 133.513L177.486 138.119L200 116.51L196.518 115Z" fill="url(#paint5_linear)"/>
<path d="M194.505 112.91L196.258 113.888L198.01 113.546L201.334 115.411L200.88 116.818L194.309 118.221L187.285 116.818L188.631 112.64L194.505 112.91Z" fill="#C0BCBC"/>
<path d="M192.885 99.6397L180.987 101.405L166 93.6726V88.3162H183.923L196.275 91.2474L200.967 95.2068L194.69 114.494L188.396 112.931L192.885 99.6397Z" fill="#887E7E"/>
<path d="M186.418 92.6884L178.212 95.7657L169.845 89.7484L175.737 69.2488L178.256 66.8347L187.285 69.9906L187.137 78.0511L186.418 92.6884Z" fill="#D9C6A9"/>
<path d="M187.285 70L197.668 80.3759L204.871 79.033L207.158 82.3975L197.321 85.2857L185.135 79.033" fill="#D9C6A9"/>
<path d="M190.842 59.8661C190.842 59.8661 189.394 65.5713 188.052 67.2079C187.475 67.9114 185.546 67.2079 185.546 67.2079L184.79 69.5042C184.79 69.5042 182.714 70.151 181.857 69.9907C180.999 69.8304 180.11 68.9953 180.11 68.9953C180.11 68.9953 183.351 58.5879 185.045 56.5564C186.74 54.5248 190.842 59.8661 190.842 59.8661Z" fill="#ADA399"/>
<path d="M191.086 60.8417C191.465 61.5721 190.695 63.3604 190.526 63.6453C190.217 64.1663 188.942 63.034 188.559 63.3248C187.923 63.8077 187.149 64.4234 186.51 64.6118C185.831 64.8122 185.192 64.0249 184.583 63.9212C183.719 63.7741 180.794 66.2472 181.427 62.7522C181.173 62.0748 180 62.5893 180 60.8417C180 59.5723 180.537 59.4566 180.58 58.8981C180.614 58.4611 179.662 58.5038 179.662 56.7399C179.662 55.5682 180.939 55.5682 181.427 55.5682C181.187 54.8105 181.187 53.8196 182.234 53.2391C183.82 52.3597 184.223 52.8553 185.19 53.2391C185 52.5025 186.317 52.0894 186.825 52.1205C187.509 52.1625 188.907 53.2391 188.559 54.2704C189.208 53.2391 190.571 54.5838 190.869 54.8105C191.643 55.399 191.713 56.4517 191 56.9999C191.465 56.9999 192.892 58.2525 193 58.8981C193.104 59.523 191.919 60.5365 191.086 60.8417Z" fill="#7B7B88"/>
<path d="M205.037 79.2473L208.736 78.2009L213 79.8863L206.573 81.9999L205.037 79.2473Z" fill="#ADA399"/>
<path d="M160.394 76.7756C159.701 76.4289 158.894 76.9678 158.949 77.7406L160.154 94.7324C160.229 95.7896 160.856 96.7288 161.804 97.203L172.932 102.771C173.625 103.118 174.432 102.579 174.377 101.806L173.172 84.8144C173.097 83.7572 172.47 82.818 171.522 82.3437L160.394 76.7756Z" fill="#9E92B9"/>
<defs>
<linearGradient id="paint0_linear" x1="105.645" y1="57.9528" x2="96.8448" y2="116.868" gradientUnits="userSpaceOnUse">
<stop stop-opacity="0.1"/>
<stop offset="1" stop-opacity="0.01"/>
</linearGradient>
<linearGradient id="paint1_linear" x1="123.512" y1="89.7277" x2="118.831" y2="138.78" gradientUnits="userSpaceOnUse">
<stop stop-opacity="0.1"/>
<stop offset="1" stop-opacity="0.01"/>
</linearGradient>
<linearGradient id="paint2_linear" x1="93.6808" y1="91.2263" x2="91.168" y2="126.894" gradientUnits="userSpaceOnUse">
<stop stop-opacity="0.1"/>
<stop offset="1" stop-opacity="0.01"/>
</linearGradient>
<linearGradient id="paint3_linear" x1="182.669" y1="47.367" x2="177.959" y2="106.813" gradientUnits="userSpaceOnUse">
<stop stop-opacity="0.1"/>
<stop offset="1" stop-opacity="0.01"/>
</linearGradient>
<linearGradient id="paint4_linear" x1="232.282" y1="87.4748" x2="225.853" y2="146.309" gradientUnits="userSpaceOnUse">
<stop stop-opacity="0.1"/>
<stop offset="1" stop-opacity="0.01"/>
</linearGradient>
<linearGradient id="paint5_linear" x1="238.694" y1="85.4662" x2="229.894" y2="144.381" gradientUnits="userSpaceOnUse">
<stop stop-opacity="0.1"/>
<stop offset="1" stop-opacity="0.01"/>
</linearGradient>
</defs>
</svg>
